<?xml version="1.0" encoding="utf-8"?>
<!-- Generator: Adobe Illustrator 27.2.0, SVG Export Plug-In . SVG Version: 6.00 Build 0)  -->
<svg version="1.1" id="Layer_1" xmlns="http://www.w3.org/2000/svg" xmlns:xlink="http://www.w3.org/1999/xlink" x="0px" y="0px"
	 viewBox="0 0 1280 694" style="enable-background:new 0 0 1280 694;" xml:space="preserve">
<style type="text/css">
	.st0{fill:#763DFF;}
	.st1{fill:#F2F2F2;}
	.st2{fill:#FFFFFF;stroke:#CCCCCC;stroke-miterlimit:10;}
	.st3{fill:#32323E;}
	.st4{fill:#FFFFFF;}
	.st5{fill:url(#SVGID_00000090270219107564405130000006854041671505842840_);}
	.st6{fill:url(#SVGID_00000009581950744025736370000005727366087447462023_);}
	.st7{fill:none;stroke:#F0F0F0;stroke-width:0.7745;stroke-miterlimit:10;}
	.st8{fill:none;stroke:#763DFF;stroke-width:1.1818;stroke-miterlimit:10;}
	.st9{fill:none;stroke:#CCCCCC;stroke-miterlimit:10;}
	.st10{clip-path:url(#SVGID_00000106838709938780382640000010398099930034067844_);}
	.st11{clip-path:url(#SVGID_00000109707821650421803580000004491111230158406816_);}
	.st12{fill:#8052FF;}
	.st13{fill:#6031CB;}
	.st14{clip-path:url(#SVGID_00000122690904072966666310000009993036198423539853_);}
	.st15{opacity:0.73;fill:#4D4D4D;}
</style>
<g>
	<defs>
		<rect id="SVGID_00000110463483494076937170000011043776891632684723_" x="-11.41" y="-47.23" width="1331.27" height="871.85"/>
	</defs>
	<clipPath id="SVGID_00000056393869559020941270000014616816512823975059_">
		<use xlink:href="#SVGID_00000110463483494076937170000011043776891632684723_"  style="overflow:visible;"/>
	</clipPath>
	<g style="clip-path:url(#SVGID_00000056393869559020941270000014616816512823975059_);">
		<g>
			<g>
				<g>
					<polygon class="st0" points="134.92,-252.38 54.59,-113.73 134.92,24.71 214.9,-113.83 					"/>
				</g>
				<g>
					<polygon class="st13" points="134.92,24.71 54.59,-113.73 -105.04,-113.83 -25.06,24.71 					"/>
				</g>
			</g>
			<g>
				<g>
					<polygon class="st0" points="374.88,-113.75 294.55,24.9 374.88,163.34 454.86,24.79 					"/>
				</g>
				<g>
					<polygon class="st12" points="374.88,-113.75 214.9,-113.75 134.92,24.8 294.55,24.9 					"/>
				</g>
				<g>
					<polygon class="st13" points="374.88,163.34 294.55,24.9 134.92,24.8 214.9,163.34 					"/>
				</g>
			</g>
			<g>
				<g>
					<polygon class="st0" points="134.92,24.71 54.59,163.36 134.92,301.79 214.9,163.25 					"/>
				</g>
				<g>
					<polygon class="st12" points="134.92,24.71 -25.06,24.71 -105.04,163.25 54.59,163.36 					"/>
				</g>
				<g>
					<polygon class="st13" points="134.92,301.79 54.59,163.36 -105.04,163.25 -25.06,301.79 					"/>
				</g>
			</g>
		</g>
		<g>
			<g>
				<g>
					<polygon class="st0" points="374.84,163.3 294.51,301.94 374.84,440.38 454.83,301.84 					"/>
				</g>
				<g>
					<polygon class="st12" points="374.84,163.3 214.86,163.3 134.88,301.84 294.51,301.94 					"/>
				</g>
				<g>
					<polygon class="st13" points="374.84,440.38 294.51,301.94 134.88,301.84 214.86,440.38 					"/>
				</g>
			</g>
			<g>
				<g>
					<polygon class="st0" points="614.8,301.92 534.47,440.57 614.8,579.01 694.79,440.47 					"/>
				</g>
				<g>
					<polygon class="st12" points="614.8,301.92 454.83,301.92 374.84,440.47 534.47,440.57 					"/>
				</g>
				<g>
					<polygon class="st13" points="614.8,579.01 534.47,440.57 374.84,440.47 454.83,579.01 					"/>
				</g>
			</g>
			<g>
				<g>
					<polygon class="st0" points="374.84,440.38 294.51,579.03 374.84,717.46 454.83,578.92 					"/>
				</g>
				<g>
					<polygon class="st12" points="374.84,440.38 214.86,440.38 134.88,578.92 294.51,579.03 					"/>
				</g>
				<g>
					<polygon class="st13" points="374.84,717.46 294.51,579.03 134.88,578.92 214.86,717.46 					"/>
				</g>
			</g>
		</g>
		<g>
			<g>
				<g>
					<polygon class="st0" points="854.78,163.3 774.45,301.94 854.78,440.38 934.77,301.84 					"/>
				</g>
				<g>
					<polygon class="st12" points="854.78,163.3 694.81,163.3 614.82,301.84 774.45,301.94 					"/>
				</g>
				<g>
					<polygon class="st13" points="854.78,440.38 774.45,301.94 614.82,301.84 694.81,440.38 					"/>
				</g>
			</g>
			<g>
				<g>
					<polygon class="st0" points="1094.74,301.92 1014.41,440.57 1094.74,579.01 1174.73,440.47 					"/>
				</g>
				<g>
					<polygon class="st12" points="1094.74,301.92 934.77,301.92 854.78,440.47 1014.41,440.57 					"/>
				</g>
				<g>
					<polygon class="st13" points="1094.74,579.01 1014.41,440.57 854.78,440.47 934.77,579.01 					"/>
				</g>
			</g>
			<g>
				<g>
					<polygon class="st0" points="854.78,440.38 774.45,579.03 854.78,717.46 934.77,578.92 					"/>
				</g>
				<g>
					<polygon class="st12" points="854.78,440.38 694.81,440.38 614.82,578.92 774.45,579.03 					"/>
				</g>
				<g>
					<polygon class="st13" points="854.78,717.46 774.45,579.03 614.82,578.92 694.81,717.46 					"/>
				</g>
			</g>
		</g>
		<g>
			<g>
				<g>
					<polygon class="st0" points="1334.66,163.3 1254.33,301.94 1334.66,440.38 1414.64,301.84 					"/>
				</g>
				<g>
					<polygon class="st12" points="1334.66,163.3 1174.68,163.3 1094.7,301.84 1254.33,301.94 					"/>
				</g>
				<g>
					<polygon class="st13" points="1334.66,440.38 1254.33,301.94 1094.7,301.84 1174.68,440.38 					"/>
				</g>
			</g>
			<g>
				<g>
					<polygon class="st0" points="1334.66,440.38 1254.33,579.03 1334.66,717.46 1414.64,578.92 					"/>
				</g>
				<g>
					<polygon class="st12" points="1334.66,440.38 1174.68,440.38 1094.7,578.92 1254.33,579.03 					"/>
				</g>
				<g>
					<polygon class="st13" points="1334.66,717.46 1254.33,579.03 1094.7,578.92 1174.68,717.46 					"/>
				</g>
			</g>
		</g>
		<g>
			<g>
				<g>
					<polygon class="st0" points="134.92,301.92 54.59,440.57 134.92,579.01 214.9,440.47 					"/>
				</g>
				<g>
					<polygon class="st12" points="134.92,301.92 -25.06,301.92 -105.04,440.47 54.59,440.57 					"/>
				</g>
				<g>
					<polygon class="st13" points="134.92,579.01 54.59,440.57 -105.04,440.47 -25.06,579.01 					"/>
				</g>
			</g>
		</g>
		<g>
			<g>
				<g>
					<polygon class="st0" points="614.84,-252.38 534.51,-113.73 614.84,24.71 694.83,-113.83 					"/>
				</g>
				<g>
					<polygon class="st13" points="614.84,24.71 534.51,-113.73 374.88,-113.83 454.86,24.71 					"/>
				</g>
			</g>
			<g>
				<g>
					<polygon class="st0" points="854.8,-113.75 774.47,24.9 854.8,163.34 934.79,24.79 					"/>
				</g>
				<g>
					<polygon class="st12" points="854.8,-113.75 694.83,-113.75 614.84,24.8 774.47,24.9 					"/>
				</g>
				<g>
					<polygon class="st13" points="854.8,163.34 774.47,24.9 614.84,24.8 694.83,163.34 					"/>
				</g>
			</g>
			<g>
				<g>
					<polygon class="st0" points="614.84,24.71 534.51,163.36 614.84,301.79 694.83,163.25 					"/>
				</g>
				<g>
					<polygon class="st12" points="614.84,24.71 454.86,24.71 374.88,163.25 534.51,163.36 					"/>
				</g>
				<g>
					<polygon class="st13" points="614.84,301.79 534.51,163.36 374.88,163.25 454.86,301.79 					"/>
				</g>
			</g>
		</g>
		<g>
			<g>
				<g>
					<polygon class="st0" points="1094.76,-252.38 1014.43,-113.73 1094.76,24.71 1174.75,-113.83 					"/>
				</g>
				<g>
					<polygon class="st13" points="1094.76,24.71 1014.43,-113.73 854.8,-113.83 934.79,24.71 					"/>
				</g>
			</g>
			<g>
				<g>
					<polygon class="st0" points="1334.72,-113.75 1254.39,24.9 1334.72,163.34 1414.71,24.79 					"/>
				</g>
				<g>
					<polygon class="st12" points="1334.72,-113.75 1174.75,-113.75 1094.76,24.8 1254.39,24.9 					"/>
				</g>
				<g>
					<polygon class="st13" points="1334.72,163.34 1254.39,24.9 1094.76,24.8 1174.75,163.34 					"/>
				</g>
			</g>
			<g>
				<g>
					<polygon class="st0" points="1094.76,24.71 1014.43,163.36 1094.76,301.79 1174.75,163.25 					"/>
				</g>
				<g>
					<polygon class="st12" points="1094.76,24.71 934.79,24.71 854.8,163.25 1014.43,163.36 					"/>
				</g>
				<g>
					<polygon class="st13" points="1094.76,301.79 1014.43,163.36 854.8,163.25 934.79,301.79 					"/>
				</g>
			</g>
		</g>
		<g>
			<g>
				<g>
					<polygon class="st0" points="134.92,579.03 54.59,717.67 134.92,856.11 214.9,717.57 					"/>
				</g>
				<g>
					<polygon class="st12" points="134.92,579.03 -25.06,579.03 -105.04,717.57 54.59,717.67 					"/>
				</g>
			</g>
		</g>
		<g>
			<g>
				<g>
					<polygon class="st0" points="614.84,579.03 534.51,717.67 614.84,856.11 694.83,717.57 					"/>
				</g>
				<g>
					<polygon class="st12" points="614.84,579.03 454.86,579.03 374.88,717.57 534.51,717.67 					"/>
				</g>
			</g>
		</g>
		<g>
			<g>
				<g>
					<polygon class="st0" points="1094.76,579.03 1014.43,717.67 1094.76,856.11 1174.75,717.57 					"/>
				</g>
				<g>
					<polygon class="st12" points="1094.76,579.03 934.79,579.03 854.8,717.57 1014.43,717.67 					"/>
				</g>
			</g>
		</g>
	</g>
</g>
</svg>
